<svg xmlns="http://www.w3.org/2000/svg" id="Layer_1" viewBox="0 0 367.17011 123.55117">
  <defs>
    <style>.cls-1,.cls-2,.cls-3{fill:none;stroke:#000;stroke-linecap:round;stroke-linejoin:round;}.cls-1,.cls-3{stroke-width:1.29491px;}.cls-4{fill:#fff;}.cls-5{fill:#ffc432;}.cls-6{fill:#ffc21a;}.cls-7{fill:#b1b1b1;}.cls-8{fill:#e10017;}.cls-2{stroke-width:1.18701px;}.cls-3{fill-rule:evenodd;}</style>
  </defs>
  <g>
    <g>
      <path class="cls-6" d="M84.36497,66.17323l.04326,.12603,8.41199-1.27039s-8.04716-16.45823-14.63966-16.87027c0,0-9.59736-18.01481-22.18384-19.44919l-.2409-.35107-.48939-23.17036c-.01307-.61951-.44423-1.15118-1.04685-1.29531C34.47752-.82896,31.00334,1.10981,31.00334,1.10981c-3.70849,.95464-6.7904,7.24179-7.76327,9.43273l-.99874,8.79576c-.41515,5.295-.55941,11.34315-.82908,11.58378,0,0-6.03187,4.00978-8.0645,15.25184l-.00385,.08109c-8.05496,2.76542-11.49015,21.61228-11.49015,21.61228l10.39699,1.55939-.00079,.01631c-.21993,7.88678-.27473,14.05488,.44713,19.20735,0,0,6.65815,1.68909,20.96095,1.81889,.11471,2.90821,.6591,16.10289,1.15713,17.7311,.31614,1.03325,3.3981,.81306,6.22134,.35092,2.18043-.3569,4.20658-.85809,4.68542-1.03763,1.0987-.41204,3.34198-.32046,3.15888-3.47935-.16034-2.76539-.61268-11.73906-.72291-13.93198,.56858-.0319,1.13642-.06352,1.71949-.10009,4.78648-.30007,9.10987-.69862,12.97612-1.14817h-.00005s-1.00902,4.37592-1.40198,12.8454c0,0,.06486,1.24396,2.99486,1.40024,2.92994,.15631,9.4855-.08409,10.38977-.39307,.90432-.30895,1.23854-2.10252,1.51326-6.70522,.27467-4.60267,.54429-9.29808,.54429-9.29808l-.02371,.00364c7.32194-1.43283,10.92468-2.71547,10.92468-2.71547,0,0-1.10049-8.51721-3.42966-17.81825Z"/>
      <path class="cls-4" d="M1.85374,67.86731s-1.05899,2.10158-1.00346,3.21873,.4807,1.72561,1.96858,1.01601c0,0,.61804,1.20318,1.57944,1.24252s1.98529-.89917,1.98529-.89917c0,0,.73402,1.279,1.70252,1.16397s1.78928-.75195,1.78928-.75195c0,0,.56599,1.0003,1.52739,.75195,0,0,.41203-.33992,.4807-1.25554,.06867-.91562,0-2.70108,0-2.70108l-10.02976-1.78546Z"/>
      <path class="cls-8" d="M25.13191,9.56526s1.47644,2.84986,1.27042,6.11176-1.03007,5.13826-1.03007,5.13826c0,0-4.12029-.39993-4.25763-4.24553-.13734-3.8456,1.4421-6.31777,4.01728-7.00449Z"/>
      <path class="cls-8" d="M55.75584,21.96046s2.72236-.85032,2.92206-4.36064c.1997-3.51031-.61804-5.6958-2.19749-6.67633,0,0-.80744-.4655-.899-.44261"/>
      <line class="cls-5" x1="8.32582" y1="14.60336" x2="21.10634" y2="15.49837"/>
      <line class="cls-5" x1="69.19668" y1="16.53118" x2="58.80898" y2="16.00531"/>
      <path class="cls-8" d="M43.57751,7.7798c-.4419-.15172-2.89152-.34336-4.19628,2.23182-1.30476,2.57518-.85839,4.91001,1.88846,5.32204s3.95891-1.97115,4.22329-3.35743c.17168-.90019-.53362-3.72199-1.91548-4.19642Z"/>
      <path class="cls-8" d="M49.51027,11.29394s-1.75112,.3658-1.9228,2.46028c-.17168,2.09448,2.64385,2.37337,3.19322,2.25109s1.92946-.84269,2.16648-2.42245c.23702-1.57976-1.66104-2.97512-3.4369-2.28892Z"/>
      <path class="cls-6" d="M41.40704,9.8285c-.41258,.18189-1.80271,1.76675-.10301,2.81586,1.69971,1.04911,2.69561,.02198,2.83484-.67421s-.60302-3.08016-2.73184-2.14165Z"/>
      <path class="cls-6" d="M51.52097,12.15547s-.98411-.41098-1.54894,.48554c-.56483,.89652,.10163,1.90783,1.10398,2.22155,1.00234,.31372,2.19841-1.93319,.44497-2.70709Z"/>
      <path class="cls-7" d="M50.24317,115.28832c-.21424-3.34119-2.9124-6.94718-6.54544-7.27325l-5.57599,1.84424c-2.91524,2.12241-4.22064,5.56011-3.30657,9.76942,.15438,.71079,2.15023,3.86243,7.19232,3.08417,5.04203-.77829,8.49935-3.31234,8.23569-7.42458Zm-9.2133,1.79352c-1.89938-.13736-1.76312-2.13506-1.76312-2.13506l4.57815-1.80211s.59514-.33983,.82407,1.60234c.22889,1.94216-1.73973,2.47217-3.6391,2.33483Z"/>
      <path class="cls-7" d="M72.73509,102.95576l-6.37841,.19163c-2.1447,.5142-5.2667,2.05255-5.29816,6.65101-.04795,7.01059,5.49575,6.47052,9.56801,6.5765,4.07227,.10601,7.17978-3.20214,7.41272-6.35217,.1783-2.41176-1.30956-6.06314-5.30417-7.06697Zm-4.67209,9.90465c-2.33238,.15425-3.70823-1.77587-3.47935-3.51557,.05996-.45582,.30223-.826,.62717-1.12412l4.32782-1.48918c2.12868-.08596,3.23128,1.29787,3.37713,2.65909,.18336,1.7104-2.52038,3.3155-4.85277,3.46978Z"/>
      <path class="cls-7" d="M54.03117,52.07947c-.09158-.60175-.41077-2.47876-.64029-2.66188l-.0137,.00327c-.12846-1.86539-1.18964-3.08496-3.19703-3.12748-2.14565-.04545-3.50126,1.73232-3.21073,3.52158,.06523,.40171,.22799,.74017,.45609,1.02327l-.16787,.03999s.36419,2.49941,1.22257,2.77411c.85838,.27467,3.87995,.44642,5.39068-.72676,0,0,.25181-.24438,.16028-.8461Z"/>
      <path class="cls-7" d="M66.09438,49.81495l-.09763,.03364c.00706-.08852,.01128-.17306,.01128-.24788,0-.82531-.28105-3.26189-3.2562-2.84988-2.97521,.41204-3.4902,2.51348-3.45585,3.21389,.01739,.35455,.15333,1.25029,.66195,1.96463l-.001,.00034s.4603,2.45513,1.84537,2.63825c1.38507,.18312,3.37655,.13734,4.08613-1.19032,.70958-1.32764,.20597-3.56267,.20597-3.56267Z"/>
      <path class="cls-7" d="M40.2158,49.93861c.06565-.37181,.1117-.95161,.02382-1.78001-.17166-1.61893-1.71675-2.40349-3.53657-1.95749-1.81981,.44602-2.43566,1.24362-2.23839,2.88792,.0177,.14759,.04684,.28687,.08125,.42215l-.00205-.00016s-.03831,2.12692,.16771,2.69919,2.12879,2.26615,4.46365,1.21319c0,0,.52648-.27467,.66384-.64092,.13731-.36625,.45145-1.76333,.44913-2.83842l-.0724-.00545Z"/>
      <path class="cls-4" d="M38.21382,109.4822s.91004,5.26481,1.50798,5.44793,4.07729-1.1903,4.12307-1.78546-1.45261-4.67261-1.45261-4.67261l-4.17845,1.01013Z"/>
      <path class="cls-4" d="M65.63849,103.14876s-.95952,5.60694,0,5.55816,3.99469-.5295,3.91921-1.5939c-.07548-1.06439-.38511-4.01333-.38511-4.01333"/>
      <path class="cls-4" d="M84.76678,66.59689s.83915,4.78749,1.71679,4.54914,1.32027-.43658,1.38119-1.27394c0,0,.27507,.81129,1.12939,.75952s1.00039-1.20242,1.00039-1.20242c0,0,.62609,1.25365,1.37309,1.0133s.81567-1.33909,.81567-1.33909c0,0,.93684,.66467,1.44699,.17783s.07356-2.69588,0-2.98196-.81006-1.27039-.81006-1.27039l-8.05344,1.56802Z"/>
    </g>
    <g>
      <path class="cls-1" d="M25.13191,9.56526s1.47644,2.84986,1.27042,6.11176-1.03007,5.13826-1.03007,5.13826c0,0-4.12029-.39993-4.25763-4.24553-.13734-3.8456,1.4421-6.31777,4.01728-7.00449Z"/>
      <path class="cls-1" d="M31.00332,1.10981s-1.09874,6.25797-1.78546,12.28218c-.68671,6.02421-.89273,13.55829-.89273,13.55829"/>
      <path class="cls-1" d="M55.75584,21.96046s2.72236-.85032,2.92206-4.36064c.1997-3.51031-.61804-5.6958-2.19749-6.67633,0,0-.80744-.4655-.899-.44261"/>
      <path class="cls-1" d="M23.24005,10.54253c.9729-2.19093,4.0548-8.47808,7.76327-9.43273,0,0,3.47424-1.93877,23.21625,2.78287,.60265,.14413,1.03381,.67579,1.0469,1.29529l.48938,23.17037"/>
      <path class="cls-1" d="M21.41221,30.28115s.41399-5.64784,.82913-10.94285"/>
      <line class="cls-1" x1="8.32582" y1="14.60336" x2="21.10634" y2="15.49837"/>
      <line class="cls-1" x1="69.19668" y1="16.53118" x2="58.80898" y2="16.00531"/>
      <path class="cls-1" d="M37.79404,6.9334s5.12377-.25234,10.03378,.84641c4.91001,1.09874,5.38582,1.19021,5.38582,1.19021"/>
      <path class="cls-1" d="M32.94573,17.49681s8.66733,1.68245,12.34125,2.30049c3.67392,.61804,6.86714,.37769,6.86714,.37769"/>
      <path class="cls-1" d="M43.57751,7.7798c-.4419-.15172-2.89152-.34336-4.19628,2.23182-1.30476,2.57518-.85839,4.91001,1.88846,5.32204s3.95891-1.97115,4.22329-3.35743c.17168-.90019-.53362-3.72199-1.91548-4.19642Z"/>
      <path class="cls-1" d="M49.51027,11.29394s-1.75112,.3658-1.9228,2.46028c-.17168,2.09448,2.64385,2.37337,3.19322,2.25109s1.49782-.84269,1.73484-2.42245c.23702-1.57976-1.2294-2.97512-3.00526-2.28892Z"/>
      <path class="cls-2" d="M41.40704,10.03926c-.41258,.18189-1.80271,1.76675-.10301,2.81586,1.69971,1.04911,2.53269-.13392,2.67192-.83011,.13923-.6962-.4401-2.92426-2.56891-1.98575Z"/>
      <path class="cls-2" d="M51.52097,12.15547s-.98411-.41098-1.54894,.48554c-.56483,.89652,.10163,1.90783,1.10398,2.22155,1.00234,.31372,2.19841-1.93319,.44497-2.70709Z"/>
      <path class="cls-1" d="M12.38438,69.44675l-10.53064-1.57944s3.47839-19.09137,11.64433-21.66619c0,0,2.44826,4.08631-1.11369,23.24564Z"/>
      <path class="cls-1" d="M84.40823,66.29926l8.41197-1.27037s-8.04715-16.45825-14.6396-16.87028"/>
      <polygon class="cls-1" points="33.40682 59.26205 32.65143 63.95304 70.91472 65.32647 71.2649 59.64014 33.40682 59.26205"/>
      <path class="cls-1" d="M12.69711,83.59307s23.19406,1.80938,30.04902,1.68992c6.85496-.11946,14.50641-.9519,23.87619-2.31641,9.36978-1.36451,20.5894-3.21911,20.5894-3.21911"/>
      <path class="cls-1" d="M12.24996,69.44301c-.21995,7.88678-.27478,14.05487,.44715,19.20733,0,0,11.6239,2.95402,37.18026,1.35188s37.91722-6.01073,37.91722-6.01073c0,0-2.8842-22.33328-9.20197-34.16477-6.31777-11.83149-11.60547-20.02266-26.30116-21.72981-14.69569-1.70715-23.02782-4.17932-30.87926,2.82517,0,0-6.03181,4.00979-8.06447,15.25186"/>
      <path class="cls-1" d="M41.03653,108.55126c2.18042-.3569,4.20658-.85809,4.68537-1.03764,1.09874-.41203,3.34201-.32047,3.15889-3.47935-.18312-3.15889-.74738-13.55583-.74738-13.55583"/>
      <path class="cls-1" d="M33.63572,90.75779s.61925,15.61131,1.17946,17.44255c.3161,1.03326,3.39803,.81305,6.22134,.35092"/>
      <path class="cls-1" d="M62.85346,88.85406s-1.00902,4.37591-1.40198,12.84538c0,0,.06485,1.24396,2.99483,1.40026,2.92998,.1563,9.48557-.08411,10.38984-.39307,.90427-.30896,1.23852-2.10253,1.51321-6.70521,.27469-4.60268,.54433-9.29808,.54433-9.29808"/>
      <path class="cls-1" d="M38.12173,109.85931c-2.91524,2.12241-4.22067,5.56012-3.30655,9.76942,.15436,.71079,2.15021,3.86245,7.19229,3.08417,5.04207-.77828,8.49934-3.31234,8.2357-7.42457-.21421-3.34119-2.9124-6.94718-6.54543-7.27326"/>
      <path class="cls-1" d="M38.21382,109.4822s.91004,5.26481,1.50798,5.44793,4.07729-1.1903,4.12307-1.78546-1.45261-4.67261-1.45261-4.67261l-4.17845,1.01013Z"/>
      <path class="cls-1" d="M65.63849,103.14876s-.95952,5.60694,0,5.55816,3.99469-.5295,3.91921-1.5939c-.07548-1.06439-.38511-4.01333-.38511-4.01333"/>
      <path class="cls-1" d="M39.26678,114.9468s-.13631,1.99769,1.76308,2.13504c1.8994,.13734,3.86798-.39267,3.63907-2.33483-.2289-1.94216-.82406-1.60233-.82406-1.60233"/>
      <path class="cls-1" d="M65.21082,108.22073c-.32492,.29812-.5672,.6683-.62717,1.12413-.2289,1.73968,1.14694,3.66982,3.47935,3.51555,2.33241-.15427,5.0361-1.75937,4.85278-3.46976-.1459-1.36122-1.24844-2.74506-3.37717-2.65909"/>
      <path class="cls-1" d="M3.30555,63.4217s5.89665,.08882,9.73333,1.04149"/>
      <path class="cls-1" d="M2.36106,65.61122s3.80794,.75755,9.96239,.87625"/>
      <path class="cls-1" d="M83.18102,61.77961s5.61773-.75032,7.56277-.43405"/>
      <path class="cls-1" d="M91.76821,63.18322s-3.57276,.71272-7.94724,.82243"/>
      <path class="cls-1" d="M32.80922,62.97313s10.48757-1.3975,20.58163-1.41054c10.09405-.01305,17.73245,.37682,17.73245,.37682"/>
      <path class="cls-1" d="M66.00801,49.60071c0-.82531-.28104-3.26189-3.2562-2.84986-2.97516,.41203-3.49019,2.51346-3.45586,3.21387,.03434,.70041,.52527,3.51593,3.45586,2.86356,2.93058-.65238,3.2562-2.40224,3.2562-3.22756Z"/>
      <path class="cls-1" d="M53.39085,49.81494s-.27598,1.43992-2.12946,1.91458c-1.85348,.47467-4.00145-.12535-4.29196-1.91458s1.06505-3.567,3.21071-3.52156c2.14566,.04544,3.21071,1.4353,3.21071,3.52156Z"/>
      <path class="cls-1" d="M40.07257,50.4591s-.42475,.91809-2.292,1.04275c-1.86724,.12466-3.11856-.76851-3.31588-2.41281-.19732-1.64431,.41856-2.44191,2.23836-2.88792,1.81979-.44601,3.3649,.33857,3.53658,1.95749s-.16706,2.30049-.16706,2.30049Z"/>
      <path class="cls-1" d="M47.25763,50.87821s.36417,2.49943,1.22256,2.77412,3.87994,.44642,5.39071-.72674c0,0,.2518-.24438,.16023-.84612s-.41073-2.47876-.64029-2.66188"/>
      <path class="cls-1" d="M59.95691,51.92969s.46034,2.45513,1.84538,2.63825c1.38504,.18312,3.37651,.13734,4.08612-1.1903s.20601-3.5627,.20601-3.5627"/>
      <path class="cls-1" d="M34.54385,49.51104s-.03829,2.12692,.16772,2.69918,2.12881,2.26616,4.46364,1.2132c0,0,.52648-.27469,.66382-.64093s.45148-1.76332,.44914-2.83842"/>
      <path class="cls-1" d="M83.75282,117.52847s-6.40088-1.0895-15.15597-1.09428c-8.72347-.00477-18.57801,.9795-18.57801,.9795"/>
      <path class="cls-1" d="M66.35667,103.1474c-2.14466,.5142-5.2667,2.05254-5.29815,6.65101-.04795,7.01059,5.49573,6.4705,9.56802,6.5765,4.07229,.10601,7.17977-3.20216,7.4127-6.35219,.17833-2.41174-1.30952-6.06313-5.30415-7.06694"/>
      <path d="M31.48407,86.65132s-1.05807-.73359-1.55055,.68907c-.49248,1.42265,1.42353,1.29901,1.72736,1.12048s.4928-1.46626-.17681-1.80955Z"/>
      <path d="M16.28687,86.46223s-.08363-.6839,.80979-.80532c.89342-.12143,.92242,.44309,.89934,.72737s-.07459,.64481-.62396,.83365-1.08876-.25815-1.08517-.7557Z"/>
      <path d="M51.77746,86.75527s.23932-.63609,.97753-.58458,.69911,.65502,.65118,.97857-.22649,.82899-.95387,.74068-.72568-.81127-.67484-1.13467Z"/>
      <path d="M70.50398,85.25953s.24221,.72032,1.38423,.48219,.56951-1.7263-.11422-1.6861-1.40993,.17012-1.27001,1.20391Z"/>
      <path d="M82.93143,82.71436s.3473,.94157,1.31764,.38652c.97034-.55505,.19329-1.80616-.51693-1.63555s-.94273,1.00554-.80072,1.24903Z"/>
      <path d="M11.80965,49.94407s-1.14258-.25752-1.39535,1.03007c-.25277,1.28759,.93729,1.75112,1.68994,1.35626,.75265-.39486,.27824-2.41064-.29459-2.38633Z"/>
      <path d="M81.45847,51.20619s1.31116,.45233,1.10596,1.6212-2.04255,.50337-2.05702,.09829-.66423-1.7974,.95106-1.71949Z"/>
      <path class="cls-1" d="M36.51321,111.35559s-1.42394,4.85642,.67053,7.15691c2.09448,2.30049,7.17617,.9614,8.89295-1.09874,1.71679-2.06014,.28726-6.77395-2.87791-6.83771"/>
      <path class="cls-1" d="M65.06435,106.25393s-2.79632,3.12527-.50543,5.73478c2.29089,2.60951,6.44551,2.47217,9.15803,1.03007,2.71252-1.4421,1.81979-5.63249-.13734-6.76485-1.95714-1.13236-4.04092-1.13236-4.04092-1.13236"/>
      <path class="cls-1" d="M1.85374,67.86731s-1.60433,3.09021-1.03779,4.18896c.67506,1.3092,2.33483-.29236,2.53715-1.1903,.13521-.60008,.33979-1.63203,.3505-2.47217"/>
      <path class="cls-1" d="M7.02434,68.82751s-.40031,2.08852-1.0284,3.56314c-.16355,.38398-.69918,.8502-1.07687,.91887-.9345,.16991-1.83232-.2209-1.56597-2.44356"/>
      <path class="cls-1" d="M9.8754,69.42386s.00686,3.39924-.61093,3.93716c-.59048,.51415-2.82465,.74702-2.88087-1.98421"/>
      <path class="cls-1" d="M12.03389,72.76587s-.26484,.78972-.95983,.84205c-.60797,.04578-1.411-.99833-1.3439-1.7365"/>
      <path class="cls-1" d="M92.6972,64.92077c.82809,1.09874,1.34918,3.3095,1.21723,3.91427-.13734,.62949-1.01325,.96687-1.67748-.06806-.66445-1.03528-1.10514-2.13664-1.47467-3.4044"/>
      <path class="cls-1" d="M88.99415,65.59825s.6245,2.46073,.85212,3.39924c.35565,1.46639,1.88846,2.12949,2.09448,.56654,.13469-1.02181-.49155-2.29438-.49155-2.29438"/>
      <path class="cls-1" d="M86.91057,66.02167s.29113,3.29849,1.22519,4.20578c.76628,.74433,1.89936,.57265,1.65223-1.46838"/>
      <path class="cls-1" d="M84.95023,68.59815s.62561,2.80895,2.01926,2.52815c1.00572-.20263,.58256-1.93514,.58256-1.93514"/>
      <path class="cls-1" d="M34.52726,118.72996s-5.26988,.45781-9.20705,0"/>
      <path class="cls-3" d="M33.8484,94.4944s3.29194,.68065,6.65684,.61447c3.3649-.06617,7.8705-.61447,7.8705-.61447"/>
      <path class="cls-3" d="M33.89718,96.95497s3.24272,1.35451,6.70104,1.35451,7.77752-.89307,7.77752-.89307"/>
      <path class="cls-1" d="M62.6512,93.12002s8.54347,1.13785,13.69815,.24855"/>
      <path class="cls-1" d="M61.89234,95.53861s1.76474,.89864,4.60979,1.08158c3.98534,.25625,9.84723-.18714,9.84723-.18714"/>
    </g>
  </g>
  <g>
    <polygon points="355.27713 24.76876 346.61683 24.76876 336.24589 36.3513 336.24589 24.76876 328.97577 24.76876 329.011 53.27941 336.24589 53.27941 336.24589 42.44543 346.08262 53.27941 355.27713 53.27941 342.019 39.2024 355.27713 24.76876 355.27713 24.76876"/>
      <path d="M317.2511,36.49383l-6.62909-.74852c-3.88395-.42761-4.84671-1.38978-4.84671-2.7083,0-1.46132,1.99594-2.77996,5.87994-2.77996,3.74308,0,5.70268,1.39004,6.0596,3.49254h7.12688c-.35573-6.02277-5.41619-9.76478-12.79432-9.76478-8.76709,0-13.18525,3.4925-13.18525,9.65792,0,5.02508,2.92235,7.3772,8.9808,8.01856l6.73465,.71273c2.56665,.28519,3.74312,1.28307,3.74312,2.56602,0,1.46117-1.71068,2.7797-5.84474,2.7797-4.77631,0-6.70067-1.21156-7.02124-3.63504h-6.98478c.32055,6.55743,4.59665,9.90754,13.75592,9.90754,8.37497,0,13.04323-3.67076,13.04323-9.19474,0-4.81118-2.77914-7.69784-8.01801-8.30368h0Z"/>
      <polygon points="272.31067 53.27941 295.26226 53.27941 295.26226 47.11407 279.582 47.11407 279.582 41.94641 292.19784 41.94641 292.19784 35.74531 279.582 35.74531 279.582 30.93418 295.26226 30.93418 295.26226 24.76876 272.31067 24.76876 272.31067 53.27941 272.31067 53.27941"/>
      <path d="M254.91971,47.11407h-5.77311V30.93418h5.77311c4.56143,0,5.91639,1.2475,5.91639,7.87606,0,6.05856-1.5322,8.30383-5.91639,8.30383h0Zm.28534-22.34531h-13.32853v28.51065h13.32853c10.22767,0,13.0432-3.81326,13.0432-14.46917,0-10.01425-2.70869-14.04148-13.0432-14.04148h0Z"/>
      <path d="M222.13257,47.57721c-5.38094,0-8.33973-3.27857-8.33973-8.62432,0-5.23875,2.95879-8.5533,8.33973-8.5533,5.41738,0,8.33977,3.31454,8.33977,8.5533,0,5.34576-2.92239,8.62432-8.33977,8.62432h0Zm0-23.5924c-10.37095,0-15.75191,6.37932-15.75191,14.96807,0,8.62432,5.38096,15.03936,15.75191,15.03936,10.40616,0,15.78835-6.41504,15.78835-15.03936,0-8.58875-5.38218-14.96807-15.78835-14.96807h0Z"/>
      <polygon points="179.58034 30.93418 188.77602 30.93418 188.77602 53.27941 196.04616 53.27941 196.04616 30.93418 205.2042 30.93418 205.2042 24.76876 179.58034 24.76876 179.58034 30.93418 179.58034 30.93418"/>
      <path d="M168.9969,42.37429c0,3.70618-2.28132,5.20307-6.16648,5.20307-3.7771,0-6.23569-1.56803-6.23569-5.20307V24.76876h-7.27132v18.42516c0,8.23228,7.34174,10.79834,13.50701,10.79834,6.13005,0,13.43659-2.56606,13.43659-10.79834V24.76876h-7.27012v17.60553h0Z"/>
      <path d="M128.7005,41.87528l3.99322-11.17664,3.92764,11.17664h-7.92086Zm-.65198-17.10652l-10.9416,28.51065h7.52022l1.90982-5.34572h12.21275l1.87823,5.34572h7.76911l-11.08364-28.51065h-9.26489Z"/>
  </g>
  <g>
    <path d="M126.77362,70.63497v21.24805h3.7793v4.07324h-12.84961v-4.07324h3.7793v-21.24805h-3.7793v-4.07324h12.84961v4.07324h-3.7793Z"/>
    <path d="M153.9035,80.50313v15.45312h-5.20703v-15.0332c0-2.81348-1.34375-3.94727-3.48535-3.94727-2.01562,0-3.56934,1.0498-4.8291,2.81348v16.16699h-5.20703v-22.33984h4.45117l.33594,2.30957c1.55371-1.84766,3.65332-2.89746,6.63477-2.89746,4.15723,0,7.30664,2.64551,7.30664,7.47461Z"/>
    <path d="M157.09784,93.43672l2.47754-2.98145c1.84766,1.38574,3.7793,2.18359,6.29883,2.18359,2.64551,0,4.24121-.75586,4.24121-2.43555v-.33594c0-1.46973-.79785-2.1416-3.7373-3.14941l-2.81348-.96582c-3.48535-1.25977-5.375-2.93945-5.375-5.75293v-.92383c0-3.56934,3.52734-6.04688,8.48242-6.04688,3.19141,0,6.25684,1.0498,8.39844,2.81348l-2.39355,2.85547c-2.22559-1.42773-3.82129-1.80566-5.83691-1.80566-2.35156,0-3.44336,.96582-3.44336,2.1416v.33594c0,1.17578,.75586,1.93164,3.61133,2.93945l2.81348,.96582c3.19141,1.13379,5.45898,2.60352,5.45898,6.00488v.92383c0,4.15723-4.11523,6.29883-8.94434,6.29883-3.7793,0-6.9707-1.13379-9.23828-3.06543Z"/>
    <path d="M191.28241,95.95626c-1.00781,.29395-2.51953,.5459-3.90527,.5459-4.2832,0-6.76074-1.88965-6.76074-6.08887v-12.93359h-3.40137v-3.86328h3.52734l.41992-5.50098h4.66113v5.50098h4.8291v3.86328h-4.8291v12.63965c0,1.6377,.88184,2.39355,2.72949,2.39355,.79785,0,1.51172-.08398,2.18359-.20996l.5459,3.65332Z"/>
    <path d="M208.92108,73.53243l-.92383,4.8291c-.41992-.08398-.88184-.12598-1.34375-.12598-2.51953,0-4.61914,1.0918-5.87891,4.45117v13.26953h-5.20703v-22.33984h3.7793l.83984,3.52734c1.30176-2.89746,3.7373-4.03125,6.04688-4.03125,1.21777,0,2.05762,.20996,2.6875,.41992Z"/>
    <path d="M229.87714,73.61641v22.33984h-4.40918l-.37793-2.47754c-1.72168,1.88965-3.98926,3.02344-6.71875,3.02344-3.94727,0-7.09668-2.60352-7.09668-6.80273v-16.08301h5.20703v15.83105c0,2.01562,1.0918,3.14941,3.14941,3.14941,1.88965,0,3.7373-1.0498,5.03906-2.85547v-16.125h5.20703Z"/>
    <path d="M233.74432,85.71016v-1.88965c0-6.4668,3.65332-10.79199,10.24609-10.79199,3.02344,0,5.33301,.96582,7.39062,2.93945l-2.47754,2.77148c-1.38574-1.21777-2.72949-1.76367-4.70312-1.76367-3.27539,0-5.24902,2.18359-5.24902,6.76074v2.05762c0,4.53516,1.84766,6.80273,5.20703,6.80273,2.05762,0,3.52734-.83984,4.91309-1.80566l2.1416,3.06543c-1.84766,1.55371-4.61914,2.64551-7.30664,2.64551-6.4248,0-10.16211-4.3252-10.16211-10.79199Z"/>
    <path d="M267.17206,95.95626c-1.00781,.29395-2.51953,.5459-3.90527,.5459-4.2832,0-6.76074-1.88965-6.76074-6.08887v-12.93359h-3.40137v-3.86328h3.52734l.41992-5.50098h4.66113v5.50098h4.8291v3.86328h-4.8291v12.63965c0,1.6377,.88184,2.39355,2.72949,2.39355,.79785,0,1.51172-.08398,2.18359-.20996l.5459,3.65332Z"/>
    <path d="M288.33807,80.88106v15.0752h-4.07324l-.41992-2.1416c-1.88965,1.84766-4.15723,2.6875-6.63477,2.6875-3.94727,0-7.43262-2.39355-7.43262-6.34082v-1.46973c0-3.90527,3.44336-6.4668,9.28027-6.4668h4.11523v-1.51172c0-2.64551-1.34375-3.7793-3.98926-3.7793-2.47754,0-4.40918,.62988-6.50879,1.67969l-1.5957-3.2334c2.26758-1.38574,5.20703-2.35156,8.56641-2.35156,5.96289,0,8.69238,3.10742,8.69238,7.85254Zm-5.16504,9.57422v-4.95508h-3.61133c-3.06543,0-4.61914,1.13379-4.61914,3.40137v.83984c0,1.76367,1.0498,2.89746,3.27539,2.89746,1.88965,0,3.65332-.67188,4.95508-2.18359Z"/>
    <path d="M313.28534,83.61055v2.26758c0,6.17285-3.98926,10.62402-9.1123,10.62402-2.39355,0-4.3252-.88184-5.87893-2.47754l-.4199,1.93164h-4.07324v-31.07422h5.20703v10.45605c1.42773-1.46973,3.35938-2.30957,5.79492-2.30957,5.12305,0,8.48242,4.11523,8.48242,10.58203Zm-5.20703-.16797c0-4.36719-1.46973-6.4668-4.3252-6.4668-2.01562,0-3.61133,.96582-4.74512,2.39355v11.33789c1.13379,1.21777,2.56152,1.88965,4.2832,1.88965,2.89746,0,4.78711-2.26758,4.78711-6.55078v-2.60352Z"/>
    <path d="M322.52753,90.74922c0,1.21777,.37793,1.72168,1.51172,1.72168,.25195,0,.5459-.04199,.88184-.08398l.5459,3.56934c-.83984,.29395-1.80566,.5459-2.98145,.5459-3.10742,0-5.16504-1.67969-5.16504-4.99707v-26.62305h5.20703v25.86719Z"/>
    <path d="M347.09491,86.42403h-14.40332c.08398,4.2832,2.05762,6.17285,5.9209,6.17285,2.43555,0,4.24121-.88184,5.96289-1.84766l1.84766,3.10742c-1.88965,1.42773-4.91309,2.64551-8.14648,2.64551-6.80273,0-10.66602-4.49316-10.66602-10.54004v-2.30957c0-6.04688,3.7793-10.62402,9.99414-10.62402,6.08887,0,9.6582,3.7793,9.6582,10.87598,0,.92383-.08398,1.84766-.16797,2.51953Zm-4.49316-3.61133c0-3.86328-1.72168-5.96289-4.95508-5.96289-3.19141,0-4.87109,2.09961-4.95508,6.17285h9.91016v-.20996Z"/>
    <path d="M348.98749,93.43672l2.47754-2.98145c1.84766,1.38574,3.7793,2.18359,6.29883,2.18359,2.64551,0,4.24121-.75586,4.24121-2.43555v-.33594c0-1.46973-.79785-2.1416-3.7373-3.14941l-2.81348-.96582c-3.48535-1.25977-5.375-2.93945-5.375-5.75293v-.92383c0-3.56934,3.52734-6.04688,8.48242-6.04688,3.19141,0,6.25684,1.0498,8.39844,2.81348l-2.39355,2.85547c-2.22559-1.42773-3.82129-1.80566-5.83691-1.80566-2.35156,0-3.44336,.96582-3.44336,2.1416v.33594c0,1.17578,.75586,1.93164,3.61133,2.93945l2.81348,.96582c3.19141,1.13379,5.45898,2.60352,5.45898,6.00488v.92383c0,4.15723-4.11523,6.29883-8.94434,6.29883-3.7793,0-6.9707-1.13379-9.23828-3.06543Z"/>
  </g>
</svg>