<svg xmlns="http://www.w3.org/2000/svg" viewBox="0 0 25 25">
  <g>
    <path fill="#fff" d="M12.5,0.833C6.056,0.833,0.834,6.057,0.834,12.5S6.056,24.167,12.5,24.167S24.167,18.943,24.167,12.5 S18.944,0.833,12.5,0.833z"></path>
  </g>
  <g>
    <path fill="#1AAAD9" d="M12.5-0.029C5.596-0.029,0,5.568,0,12.472c0,6.904,5.596,12.501,12.5,12.501s12.5-5.597,12.5-12.501 C25.001,5.568,19.405-0.029,12.5-0.029z M11.414,19.911L6.025,16.8v-6.276l5.389,2.911V19.911z M12.374,11.958l-6.376-3.38 l6.376-3.682l6.377,3.682L12.374,11.958z M18.755,16.812l-5.369,3.1v-6.452l5.369-2.901V16.812z"></path>
  </g>
</svg>